<?xml version="1.0" standalone="no"?>
<!DOCTYPE svg PUBLIC "-//W3C//DTD SVG 20010904//EN"
 "http://www.w3.org/TR/2001/REC-SVG-20010904/DTD/svg10.dtd">
<svg version="1.0" xmlns="http://www.w3.org/2000/svg"
 width="403.000000pt" height="403.000000pt" viewBox="0 0 403.000000 403.000000"
 preserveAspectRatio="xMidYMid meet">
<metadata>
Created by potrace 1.11, written by Peter Selinger 2001-2013
</metadata>
<g transform="translate(0.000000,403.000000) scale(0.100000,-0.100000)"
fill="#000000" stroke="none">
<path d="M1770 4013 c-825 -101 -1510 -717 -1705 -1535 -13 -57 -27 -123 -30
-148 -3 -25 -10 -76 -14 -115 -9 -70 -7 -417 2 -432 3 -4 7 -30 11 -58 4 -41
24 -144 41 -215 16 -65 61 -196 97 -281 32 -75 48 -103 63 -106 88 -16 589 0
700 22 11 2 43 7 70 10 214 28 575 128 787 218 119 50 358 173 458 237 445
279 815 667 1102 1155 70 119 178 330 222 437 l28 66 -22 24 c-12 13 -33 38
-47 56 -14 18 -29 31 -33 30 -4 -2 -45 -52 -90 -113 -295 -390 -627 -710 -992
-953 -59 -40 -110 -72 -112 -72 -3 0 -29 -15 -58 -33 -202 -128 -638 -299
-868 -341 -14 -2 -63 -11 -110 -20 -47 -8 -112 -18 -145 -21 -33 -4 -71 -9
-85 -11 -53 -9 -329 -14 -334 -6 -24 39 -39 416 -23 572 75 716 496 1196 1210
1379 242 62 457 86 780 86 103 0 187 1 187 2 0 6 -108 49 -200 79 -99 33 -282
74 -395 89 -96 13 -379 12 -495 -2z"/>
<path d="M3762 2998 c-7 -7 -12 -15 -12 -19 0 -8 -94 -174 -133 -236 -15 -24
-27 -45 -27 -47 0 -2 -25 -41 -55 -86 -30 -45 -55 -84 -55 -86 0 -3 -13 -22
-28 -42 -16 -20 -48 -64 -73 -97 -230 -312 -503 -591 -794 -810 -95 -71 -309
-215 -320 -215 -4 0 -19 -9 -33 -19 -45 -31 -320 -166 -437 -214 -136 -55
-357 -128 -465 -153 -8 -1 -64 -14 -125 -28 -60 -14 -128 -27 -150 -31 -23 -3
-50 -7 -62 -9 -102 -20 -327 -37 -490 -37 l-133 -1 82 -100 c228 -282 509
-492 828 -618 109 -44 315 -104 390 -114 25 -3 55 -8 68 -10 126 -25 395 -25
582 0 232 31 586 158 742 266 14 10 29 18 32 18 4 0 39 23 79 52 295 212 511
463 656 763 83 172 125 289 161 452 24 107 25 125 6 100 -96 -126 -383 -412
-541 -538 -370 -296 -759 -498 -1145 -593 -118 -29 -124 -30 -270 -51 -116
-17 -392 -27 -384 -13 3 4 13 8 22 8 36 0 254 81 373 137 273 130 504 296 748
536 337 331 615 723 946 1332 21 39 56 102 77 140 79 142 77 114 11 253 -46
95 -62 119 -71 110z"/>
</g>
</svg>
